<?xml version="1.0" encoding="UTF-8" standalone="no"?>
<!-- Created with Inkscape (http://www.inkscape.org/) -->

<svg
   width="122.43881mm"
   height="104.70071mm"
   viewBox="0 0 122.43881 104.70071"
   version="1.1"
   id="svg1"
   xml:space="preserve"
   inkscape:export-filename="bitmap.svg"
   inkscape:export-xdpi="96"
   inkscape:export-ydpi="96"
   sodipodi:docname="bitmap.svg"
   xmlns:inkscape="http://www.inkscape.org/namespaces/inkscape"
   xmlns:sodipodi="http://sodipodi.sourceforge.net/DTD/sodipodi-0.dtd"
   xmlns="http://www.w3.org/2000/svg"
   xmlns:svg="http://www.w3.org/2000/svg"><sodipodi:namedview
     id="namedview1"
     pagecolor="#ffffff"
     bordercolor="#000000"
     borderopacity="0.25"
     inkscape:showpageshadow="2"
     inkscape:pageopacity="0.0"
     inkscape:pagecheckerboard="0"
     inkscape:deskcolor="#d1d1d1"
     inkscape:document-units="mm"
     inkscape:zoom="0.56"
     inkscape:cx="387.5"
     inkscape:cy="527.67857"
     inkscape:window-width="1472"
     inkscape:window-height="920"
     inkscape:window-x="237"
     inkscape:window-y="1116"
     inkscape:window-maximized="0"
     inkscape:current-layer="freepik--background-simple--inject-19"><inkscape:page
       x="0"
       y="6.5007765e-21"
       width="122.43881"
       height="104.70071"
       id="page1"
       margin="0"
       bleed="0" /></sodipodi:namedview><defs
     id="defs1"><rect
       x="316.07144"
       y="112.5"
       width="132.14285"
       height="110.71429"
       id="rect7" /><linearGradient
       id="swatch1"
       inkscape:swatch="solid"><stop
         style="stop-color:#000000;stop-opacity:1;"
         offset="0"
         id="stop1" /></linearGradient></defs><g
     inkscape:label="Livello 1"
     inkscape:groupmode="layer"
     id="layer1"
     transform="translate(-38.434017,-94.682382)"><g
       id="g1"
       transform="matrix(0.26458333,0,0,0.26458333,1.7620111,5.3411547)"><g
         id="freepik--background-simple--inject-19"
         transform="translate(119.64286,285.71429)"><path
           d="m 481.72,245.83 a 119.56,119.56 0 0 1 -3.33,28.48 c -0.75,3.06 -1.65,6.11 -2.68,9.11 -0.3,0.86 -0.6,1.72 -0.92,2.57 -0.26,0.7 -0.53,1.4 -0.8,2.09 l -0.23,0.57 c -0.29,0.72 -0.58,1.44 -0.89,2.15 l -0.15,0.35 c -0.3,0.7 -0.61,1.4 -0.92,2.09 l -0.42,0.91 c -0.28,0.62 -0.57,1.23 -0.87,1.84 -0.3,0.61 -0.63,1.29 -0.95,1.93 -0.12,0.23 -0.23,0.46 -0.35,0.68 l -0.85,1.65 -0.69,1.27 q -1.59,2.94 -3.33,5.8 c -0.47,0.78 -0.95,1.56 -1.44,2.33 -0.11,0.19 -0.23,0.38 -0.35,0.57 q -0.84,1.32 -1.71,2.64 c -0.47,0.71 -0.94,1.42 -1.43,2.13 l -1.27,1.85 -0.28,0.39 c -0.44,0.64 -0.9,1.28 -1.35,1.92 -0.56,0.79 -1.13,1.56 -1.7,2.34 -0.12,0.16 -0.23,0.32 -0.35,0.47 -0.65,0.89 -1.32,1.77 -2,2.64 -0.4,0.52 -0.8,1 -1.21,1.56 -0.72,0.95 -1.46,1.89 -2.21,2.83 -0.75,0.94 -1.43,1.79 -2.16,2.68 l -0.24,0.29 c -0.72,0.89 -1.44,1.77 -2.18,2.65 -0.21,0.27 -0.44,0.54 -0.66,0.8 -0.67,0.81 -1.35,1.62 -2,2.42 q -2.94,3.48 -5.93,6.9 -6.08,7 -12.41,13.89 c -3.51,3.8 -7.07,7.58 -10.7,11.29 -17.42,17.89 -36.28,34.58 -56.79,47.88 -2.55,1.65 -5.12,3.26 -7.72,4.79 l -2.85,1.67 -0.49,0.28 c -1,0.56 -2,1.11 -2.95,1.65 -0.95,0.54 -2,1.11 -3,1.64 l -1.38,0.72 q -3,1.56 -6,3 c -1.09,0.52 -2.18,1 -3.28,1.51 -1.1,0.51 -2,0.91 -3.05,1.35 l -1.25,0.53 c -0.93,0.4 -1.87,0.78 -2.81,1.16 q -2.72,1.1 -5.48,2.09 l -2.12,0.76 -1.2,0.41 -2,0.65 -1.72,0.55 h -0.06 q -1.69,0.53 -3.39,1 c -1.79,0.52 -3.58,1 -5.38,1.46 -1.19,0.3 -2.38,0.58 -3.58,0.85 -1.2,0.27 -2.26,0.5 -3.4,0.74 l -0.27,0.05 c -1.18,0.24 -2.37,0.47 -3.56,0.68 l -1.82,0.31 -1.84,0.29 c -0.55,0.09 -1.11,0.17 -1.66,0.24 l -2,0.28 a 154.51,154.51 0 0 1 -21.37,1.21 h -1.28 a 176.84,176.84 0 0 1 -19.35,-1.45 l -1.41,-0.19 -2.43,-0.34 -1.89,-0.3 c -2.67,-0.42 -5.32,-0.9 -8,-1.44 -0.59,-0.11 -1.17,-0.23 -1.75,-0.36 -1.78,-0.37 -3.57,-0.77 -5.34,-1.19 -1.19,-0.28 -2.37,-0.57 -3.55,-0.87 l -1.77,-0.46 -1.77,-0.47 c -2.35,-0.63 -4.69,-1.31 -7,-2 q -4.06,-1.23 -8.08,-2.61 l -2.92,-1 c -3,-1.07 -6,-2.2 -9,-3.37 l -1.63,-0.66 -1.31,-0.57 -0.88,-0.4 c -1.94,-0.88 -4,-1.91 -6.32,-3.07 l -1.16,-0.6 c -1.39,-0.73 -2.84,-1.5 -4.33,-2.32 -3.13,-1.72 -6.48,-3.62 -10,-5.69 -40,-23.54 -101.26,-67.72 -115.64,-84.47 -0.73,-0.85 -1.44,-1.71 -2.15,-2.58 -0.55,-0.68 -1.1,-1.37 -1.63,-2.07 -0.53,-0.7 -1,-1.26 -1.44,-1.91 -0.44,-0.65 -0.83,-1.13 -1.23,-1.71 -0.4,-0.58 -0.76,-1.07 -1.13,-1.61 l -0.08,-0.12 c -0.45,-0.67 -0.9,-1.34 -1.34,-2 -0.44,-0.66 -0.84,-1.3 -1.24,-2 -0.2,-0.31 -0.39,-0.63 -0.58,-0.95 q -0.67,-1.11 -1.32,-2.22 v 0 c -0.46,-0.82 -0.92,-1.64 -1.37,-2.47 -0.78,-1.45 -1.53,-2.91 -2.23,-4.39 l -0.54,-1.15 a 91.47,91.47 0 0 1 -3.74,-9.29 c -0.39,-1.1 -0.74,-2.21 -1.08,-3.32 -0.43,-1.43 -0.82,-2.87 -1.18,-4.31 -0.07,-0.29 -0.14,-0.57 -0.2,-0.86 -0.18,-0.75 -0.35,-1.51 -0.5,-2.27 -0.23,-1.06 -0.42,-2.12 -0.6,-3.19 0,-0.26 -0.09,-0.52 -0.12,-0.78 -0.09,-0.55 -0.17,-1.1 -0.24,-1.66 -0.07,-0.56 -0.17,-1.33 -0.24,-2 0,-0.23 -0.05,-0.45 -0.07,-0.67 -0.06,-0.57 -0.1,-1.14 -0.15,-1.7 a 0.61,0.61 0 0 0 0,-0.14 c -0.05,-0.68 -0.09,-1.35 -0.11,-2 a 1.28,1.28 0 0 1 0,-0.19 q 0,-1.06 -0.06,-2.13 v -2 c 0,-1 0.05,-2.09 0.11,-3.13 0,-0.68 0.09,-1.36 0.15,-2 0.12,-1.34 0.28,-2.68 0.48,-4 0.1,-0.68 0.21,-1.36 0.34,-2 q 0.36,-2 0.87,-4.05 a 69.72,69.72 0 0 1 3.45,-10.25 72.21,72.21 0 0 1 3.59,-7.34 c 0.1,-0.2 0.22,-0.41 0.34,-0.61 5.39,-9.49 12.72,-17.91 21,-25.71 0.88,-0.84 1.77,-1.66 2.68,-2.47 0.91,-0.81 1.91,-1.72 2.88,-2.58 l 0.18,-0.16 q 2.32,-2 4.71,-4 c 2.45,-2.05 4.94,-4.06 7.45,-6.06 l 0.25,-0.2 c 2.15,-1.7 4.32,-3.39 6.48,-5.07 3.4,-2.63 6.81,-5.25 10.15,-7.86 l 2.64,-2.07 c 1,-0.76 1.92,-1.52 2.87,-2.28 a 213.69,213.69 0 0 0 23.86,-22.64 q 2.08,-2.28 4.14,-4.59 c 0.65,-0.74 1.3,-1.47 1.94,-2.21 9.13,-10.4 17.62,-20.92 27.07,-30.85 q 3.38,-3.55 6.92,-7 c 2,-1.91 4,-3.79 6.14,-5.63 2.35,-2.27 4.78,-4.38 7.35,-6.38 3.55,-2.76 7.29,-5.41 11.29,-7.94 1,-0.63 2,-1.24 2.93,-1.84 99.71,-62 173.1,-41.74 222.06,0 Q 408.85,96 414,101 c 2.08,2 4.09,4.09 6,6.19 0.22,0.22 0.42,0.45 0.63,0.69 q 2.06,2.19 4,4.41 l 1.15,1.32 c 0.57,0.66 1.14,1.32 1.7,2 0.56,0.68 1.37,1.63 2.05,2.45 l 1.27,1.56 c 2.73,3.36 5.33,6.77 7.81,10.2 0.5,0.68 1,1.37 1.48,2.06 3.42,4.8 6.6,9.65 9.55,14.47 l 1.25,2.06 q 0.63,1 1.23,2.07 l 1.19,2.05 c 0.4,0.69 0.79,1.37 1.17,2.05 l 1.14,2 c 0.39,0.68 0.76,1.36 1.11,2 l 1.09,2 c 0.36,0.67 0.71,1.35 1.06,2 l 1,2 1,2 q 2,4 3.73,7.82 c 0.58,1.3 1.16,2.59 1.71,3.86 2.49,5.72 4.62,11.19 6.36,16.28 a 0.19,0.19 0 0 1 0,0.07 c 0.17,0.49 0.33,1 0.49,1.45 0.16,0.45 0.33,1 0.49,1.48 0.16,0.48 0.25,0.75 0.36,1.13 0.18,0.56 0.36,1.12 0.53,1.69 0.17,0.57 0.37,1.22 0.54,1.83 0.33,1.12 0.65,2.24 1,3.37 0.26,0.95 0.51,1.9 0.75,2.86 0,0.18 0.1,0.35 0.14,0.53 0.04,0.18 0.07,0.3 0.11,0.45 0.14,0.56 0.28,1.12 0.41,1.69 0.36,1.49 0.69,3 1,4.49 0.17,0.82 0.34,1.63 0.49,2.45 l 0.09,0.46 q 0.23,1.15 0.42,2.31 c 0.18,1 0.35,2.07 0.5,3.1 0.13,0.78 0.24,1.57 0.35,2.36 0,0.11 0,0.23 0.05,0.35 0.07,0.52 0.14,1 0.2,1.58 0.06,0.58 0.11,0.88 0.16,1.31 0.18,1.59 0.34,3.17 0.47,4.76 l 0.09,1.08 0.12,1.81 c 0,0.67 0.08,1.34 0.11,2 0,0.52 0.05,1 0.07,1.55 0,0.76 0.05,1.53 0.06,2.29 0.01,0.76 0.04,1.95 0.04,2.84 z"
           style="fill:#f8c954"
           id="path4" /><g
           style="opacity:0.7;fill:#f8c954;fill-opacity:1"
           id="g5"><path
             d="m 481.72,245.83 a 119.56,119.56 0 0 1 -3.33,28.48 c -0.75,3.06 -1.65,6.11 -2.68,9.11 -0.3,0.86 -0.6,1.72 -0.92,2.57 -0.26,0.7 -0.53,1.4 -0.8,2.09 l -0.23,0.57 c -0.29,0.72 -0.58,1.44 -0.89,2.15 l -0.15,0.35 c -0.3,0.7 -0.61,1.4 -0.92,2.09 l -0.42,0.91 c -0.28,0.62 -0.57,1.23 -0.87,1.84 -0.3,0.61 -0.63,1.29 -0.95,1.93 -0.12,0.23 -0.23,0.46 -0.35,0.68 l -0.85,1.65 -0.69,1.27 q -1.59,2.94 -3.33,5.8 c -0.47,0.78 -0.95,1.56 -1.44,2.33 -0.11,0.19 -0.23,0.38 -0.35,0.57 q -0.84,1.32 -1.71,2.64 c -0.47,0.71 -0.94,1.42 -1.43,2.13 l -1.27,1.85 -0.28,0.39 c -0.44,0.64 -0.9,1.28 -1.35,1.92 -0.56,0.79 -1.13,1.56 -1.7,2.34 -0.12,0.16 -0.23,0.32 -0.35,0.47 -0.65,0.89 -1.32,1.77 -2,2.64 -0.4,0.52 -0.8,1 -1.21,1.56 -0.72,0.95 -1.46,1.89 -2.21,2.83 -0.75,0.94 -1.43,1.79 -2.16,2.68 l -0.24,0.29 c -0.72,0.89 -1.44,1.77 -2.18,2.65 -0.21,0.27 -0.44,0.54 -0.66,0.8 -0.67,0.81 -1.35,1.62 -2,2.42 q -2.94,3.48 -5.93,6.9 -6.08,7 -12.41,13.89 c -3.51,3.8 -7.07,7.58 -10.7,11.29 -17.42,17.89 -36.28,34.58 -56.79,47.88 -2.55,1.65 -5.12,3.26 -7.72,4.79 l -2.85,1.67 -0.49,0.28 c -1,0.56 -2,1.11 -2.95,1.65 -0.95,0.54 -2,1.11 -3,1.64 l -1.38,0.72 q -3,1.56 -6,3 c -1.09,0.52 -2.18,1 -3.28,1.51 -1.1,0.51 -2,0.91 -3.05,1.35 l -1.25,0.53 c -0.93,0.4 -1.87,0.78 -2.81,1.16 q -2.72,1.1 -5.48,2.09 l -2.12,0.76 -1.2,0.41 -2,0.65 -1.72,0.55 h -0.06 q -1.69,0.53 -3.39,1 c -1.79,0.52 -3.58,1 -5.38,1.46 -1.19,0.3 -2.38,0.58 -3.58,0.85 -1.2,0.27 -2.26,0.5 -3.4,0.74 l -0.27,0.05 c -1.18,0.24 -2.37,0.47 -3.56,0.68 l -1.82,0.31 -1.84,0.29 c -0.55,0.09 -1.11,0.17 -1.66,0.24 l -2,0.28 a 154.51,154.51 0 0 1 -21.37,1.21 h -1.28 a 176.84,176.84 0 0 1 -19.35,-1.45 l -1.41,-0.19 -2.43,-0.34 -1.89,-0.3 c -2.67,-0.42 -5.32,-0.9 -8,-1.44 -0.59,-0.11 -1.17,-0.23 -1.75,-0.36 -1.78,-0.37 -3.57,-0.77 -5.34,-1.19 -1.19,-0.28 -2.37,-0.57 -3.55,-0.87 l -1.77,-0.46 -1.77,-0.47 c -2.35,-0.63 -4.69,-1.31 -7,-2 q -4.06,-1.23 -8.08,-2.61 l -2.92,-1 c -3,-1.07 -6,-2.2 -9,-3.37 l -1.63,-0.66 -1.31,-0.57 -0.88,-0.4 c -1.94,-0.88 -4,-1.91 -6.32,-3.07 l -1.16,-0.6 c -1.39,-0.73 -2.84,-1.5 -4.33,-2.32 -3.13,-1.72 -6.48,-3.62 -10,-5.69 -40,-23.54 -101.26,-67.72 -115.64,-84.47 -0.73,-0.85 -1.44,-1.71 -2.15,-2.58 -0.55,-0.68 -1.1,-1.37 -1.63,-2.07 -0.53,-0.7 -1,-1.26 -1.44,-1.91 -0.44,-0.65 -0.83,-1.13 -1.23,-1.71 -0.4,-0.58 -0.76,-1.07 -1.13,-1.61 l -0.08,-0.12 c -0.45,-0.67 -0.9,-1.34 -1.34,-2 -0.44,-0.66 -0.84,-1.3 -1.24,-2 -0.2,-0.31 -0.39,-0.63 -0.58,-0.95 q -0.67,-1.11 -1.32,-2.22 v 0 c -0.46,-0.82 -0.92,-1.64 -1.37,-2.47 -0.78,-1.45 -1.53,-2.91 -2.23,-4.39 l -0.54,-1.15 a 91.47,91.47 0 0 1 -3.74,-9.29 c -0.39,-1.1 -0.74,-2.21 -1.08,-3.32 -0.43,-1.43 -0.82,-2.87 -1.18,-4.31 -0.07,-0.29 -0.14,-0.57 -0.2,-0.86 -0.18,-0.75 -0.35,-1.51 -0.5,-2.27 -0.23,-1.06 -0.43,-2.12 -0.6,-3.19 0,-0.26 -0.09,-0.52 -0.12,-0.78 -0.09,-0.55 -0.17,-1.1 -0.24,-1.66 -0.07,-0.56 -0.17,-1.33 -0.24,-2 0,-0.23 -0.05,-0.45 -0.07,-0.67 -0.06,-0.57 -0.1,-1.14 -0.15,-1.7 a 0.61,0.61 0 0 0 0,-0.14 c -0.05,-0.68 -0.09,-1.35 -0.11,-2 a 1.28,1.28 0 0 1 0,-0.19 q 0,-1.06 -0.06,-2.13 c 0,-1.73 0,-3.45 0.11,-5.17 0,-0.68 0.09,-1.36 0.15,-2 0.12,-1.34 0.28,-2.68 0.48,-4 0.1,-0.68 0.21,-1.36 0.34,-2 q 0.36,-2 0.87,-4.05 a 69.72,69.72 0 0 1 3.45,-10.25 72.21,72.21 0 0 1 3.59,-7.34 c 0.1,-0.2 0.22,-0.41 0.34,-0.61 5.39,-9.49 12.72,-17.91 21,-25.71 l 1.42,-1.33 1.26,-1.14 c 1,-0.87 1.91,-1.72 2.88,-2.58 l 0.18,-0.16 q 2.32,-2 4.71,-4 c 2.45,-2.05 4.94,-4.06 7.45,-6.06 l 0.25,-0.2 c 2.15,-1.7 4.32,-3.39 6.48,-5.07 l 3.26,-2.52 c 2.31,-1.78 4.62,-3.56 6.89,-5.34 l 2.64,-2.07 c 1,-0.76 1.92,-1.52 2.87,-2.28 a 213.69,213.69 0 0 0 23.86,-22.64 q 2.08,-2.28 4.14,-4.59 c 0.65,-0.74 1.3,-1.47 1.94,-2.21 9.13,-10.4 17.62,-20.92 27.07,-30.85 q 3.38,-3.55 6.92,-7 c 2,-1.91 4,-3.79 6.14,-5.63 2.35,-2.23 4.78,-4.34 7.35,-6.34 3.55,-2.76 7.29,-5.41 11.29,-7.94 1,-0.63 2,-1.24 2.93,-1.84 99.71,-62 173.1,-41.74 222.06,0 Q 408.85,96 414,101 c 2.08,2 4.09,4.09 6,6.19 0.22,0.22 0.42,0.45 0.63,0.69 q 2.06,2.19 4,4.41 l 1.15,1.32 c 0.57,0.66 1.14,1.32 1.7,2 0.56,0.68 1.37,1.63 2.05,2.45 l 1.27,1.56 c 2.73,3.36 5.33,6.77 7.81,10.2 0.5,0.68 1,1.37 1.48,2.06 3.42,4.8 6.6,9.65 9.55,14.47 l 1.25,2.06 q 0.63,1 1.23,2.07 l 1.19,2.05 c 0.4,0.69 0.79,1.37 1.17,2.05 l 1.14,2 c 0.39,0.68 0.76,1.36 1.11,2 l 1.09,2 c 0.36,0.67 0.71,1.35 1.06,2 l 1,2 1,2 q 2,4 3.73,7.82 c 0.58,1.3 1.16,2.59 1.71,3.86 2.49,5.72 4.62,11.19 6.36,16.28 a 0.19,0.19 0 0 1 0,0.07 c 0.17,0.49 0.33,1 0.49,1.45 0.16,0.45 0.33,1 0.49,1.48 0.16,0.48 0.25,0.75 0.36,1.13 0.18,0.56 0.36,1.12 0.53,1.69 0.17,0.57 0.37,1.22 0.54,1.83 0.33,1.12 0.65,2.24 1,3.37 0.26,0.95 0.51,1.9 0.75,2.86 0,0.18 0.1,0.35 0.14,0.53 0.04,0.18 0.07,0.3 0.11,0.45 0.14,0.56 0.28,1.12 0.41,1.69 0.36,1.49 0.69,3 1,4.49 0.17,0.82 0.34,1.63 0.49,2.45 l 0.09,0.46 q 0.23,1.15 0.42,2.31 c 0.18,1 0.35,2.07 0.5,3.1 0.13,0.78 0.24,1.57 0.35,2.36 0,0.11 0,0.23 0.05,0.35 0.07,0.52 0.14,1 0.2,1.58 0.06,0.58 0.11,0.88 0.16,1.31 0.18,1.59 0.34,3.17 0.47,4.76 l 0.09,1.08 0.12,1.81 c 0,0.67 0.08,1.34 0.11,2 0,0.52 0.05,1 0.07,1.55 0,0.76 0.05,1.53 0.06,2.29 0.01,0.76 0.04,1.95 0.04,2.84 z"
             style="fill:#f8c954;fill-opacity:1"
             id="path5" /></g><text
           xml:space="preserve"
           transform="translate(-126.30243,-305.90133)"
           id="text7"
           style="font-size:53.3333px;font-family:roboto;-inkscape-font-specification:roboto;text-align:start;letter-spacing:0px;writing-mode:lr-tb;direction:ltr;white-space:pre;shape-inside:url(#rect7);fill:#043d35;fill-opacity:1" /><g
           style="fill:#004138;fill-opacity:1"
           id="g2"
           transform="matrix(14.135527,0,0,14.135527,98.434273,98.924055)"><path
             d="M 9.29183,21 V 19.668834 18.4407 L 9.3255,16.6219 C 9.36595,16.0561 9.58639,15.5228 9.94907,15.11 9.95438,15.1039 9.95972,15.0979 9.9651,15.0919 9.9791,15.0763 9.96988,15.0511 9.94907,15.0485 v 0 C 7.52554,14.746 5.0005,13.7227 5.0005,9.26749 4.9847,8.17021 5.3427,7.10648 6.00437,6.27215 6.02752,6.24297 6.05103,6.21406 6.07492,6.18545 v 0 C 6.10601,6.1482 6.11618,6.09772 6.10194,6.05134 6.10107,6.04853 6.10021,6.04571 6.09935,6.04289 6.0832,5.9899 6.06804,5.93666 6.05388,5.88321 5.81065,4.96474 5.86295,3.98363 6.20527,3.09818 6.20779,3.09164 6.21034,3.08511 6.2129,3.07858 6.22568,3.04599 6.25251,3.02108 6.28698,3.01493 v 0 c 0.21491,-0.03832 1.08338,-0.08959 2.746,1.05853 0.05175,0.03573 0.10426,0.07263 0.15755,0.11072 v 0 c 0.03848,0.0275 0.08741,0.03593 0.13291,0.02298 L 9.32774,4.20593 C 9.41699,4.18056 9.50648,4.15649 9.59617,4.1337 c 1.58043,-0.40144 3.22723,-0.40144 4.80763,0 0.0851,0.0216 0.1699,0.04437 0.2546,0.06829 0.0018,5.3e-4 0.0037,0.00105 0.0055,0.00157 0.0535,0.01516 0.111,0.00526 0.1563,-0.02703 v 0 C 14.8698,4.14114 14.9187,4.10679 14.967,4.07346 16.6257,2.92776 17.4894,2.9764 17.7053,3.01469 v 0 c 0.0351,0.00623 0.0625,0.03159 0.0757,0.06477 0.0017,0.00427 0.0033,0.00853 0.005,0.0128 0.3481,0.88585 0.4034,1.86988 0.16,2.79095 -0.0145,0.0549 -0.0301,0.10959 -0.0467,0.16402 v 0 c -0.015,0.04895 -0.0042,0.10219 0.0285,0.14152 0.0011,0.00123 0.0021,0.00246 0.0031,0.0037 0.0219,0.02632 0.0435,0.05289 0.0647,0.0797 0.6617,0.83433 1.0197,1.89806 1.0039,2.99534 0,4.47951 -2.543,5.47601 -4.9781,5.74751 v 0 c -0.0141,0.0015 -0.0204,0.0184 -0.0109,0.0289 0.0036,0.004 0.0073,0.008 0.0109,0.012 0.2457,0.2737 0.4363,0.5985 0.5597,0.9544 0.129,0.3721 0.1815,0.7694 0.154,1.1651 V 21"
             stroke="#323232"
             stroke-width="2"
             stroke-linecap="round"
             stroke-linejoin="round"
             id="path1"
             style="fill:#004138;fill-opacity:0.00977993;stroke:#004138;stroke-width:1.99999;stroke-dasharray:none;stroke-opacity:1"
             sodipodi:nodetypes="ccccccssccsscccccsscssccccccsscsssccssccccssccccc" /><path
             d="m 4,17 c 0.36915,0.0523 0.72159,0.1883 1.03065,0.3975 0.30905,0.2093 0.56661,0.4863 0.75315,0.8103 0.15851,0.2884 0.37221,0.5426 0.62884,0.7479 0.25663,0.2053 0.55115,0.3578 0.86665,0.4486 0.31549,0.0909 0.64575,0.1183 0.97183,0.0807 0.32608,-0.0375 0.64156,-0.1393 0.92834,-0.2995"
             stroke="#323232"
             stroke-width="2"
             stroke-linecap="round"
             stroke-linejoin="round"
             id="path2"
             style="fill:#004138;fill-opacity:1;stroke:#004138;stroke-opacity:1" /></g></g></g></g></svg>
